HIERARCHY
ROOT Hips
{
  OFFSET 0 0 0
  CHANNELS 6 Xposition Yposition Zposition Zrotation Xrotation Yrotation
  JOINT LeftHip
  {
    OFFSET 3.43 0 0
    CHANNELS 3 Zrotation Xrotation Yrotation
    JOINT LeftKnee
    {
      OFFSET 5.68434e-014 -18.47 -7.10543e-014
      CHANNELS 3 Zrotation Xrotation Yrotation
      JOINT LeftAnkle
      {
        OFFSET 1.77636e-012 -17.95 2.41585e-013
        CHANNELS 3 Zrotation Xrotation Yrotation
        End Site
        {
          OFFSET 0 -3.12 0
        }
      }
    }
  }
  JOINT RightHip
  {
    OFFSET -3.43 -2.13163e-014 -1.42109e-014
    CHANNELS 3 Zrotation Xrotation Yrotation
    JOINT RightKnee
    {
      OFFSET 5.68434e-014 -18.47 -5.68434e-014
      CHANNELS 3 Zrotation Xrotation Yrotation
      JOINT RightAnkle
      {
        OFFSET 3.41061e-012 -17.95 1.36424e-012
        CHANNELS 3 Zrotation Xrotation Yrotation
        End Site
        {
          OFFSET 0 -3.12 0
        }
      }
    }
  }
  JOINT Chest
  {
    OFFSET 7.10543e-014 4.57 -1.42109e-013
    CHANNELS 3 Zrotation Xrotation Yrotation
    JOINT Chest2
    {
      OFFSET 0 6.57 0
      CHANNELS 3 Zrotation Xrotation Yrotation
      JOINT LeftCollar
      {
        OFFSET 1.06 4.19 1.76
        CHANNELS 3 Zrotation Xrotation Yrotation
        JOINT LeftShoulder
        {
          OFFSET 5.81 1.42109e-014 4.26326e-014
          CHANNELS 3 Zrotation Xrotation Yrotation
          JOINT LeftElbow
          {
            OFFSET 5.82645e-013 -12.08 -4.83169e-013
            CHANNELS 3 Zrotation Xrotation Yrotation
            JOINT LeftWrist
            {
              OFFSET -2.60059e-012 -9.82 -9.43601e-012
              CHANNELS 3 Zrotation Xrotation Yrotation
              End Site
              {
                OFFSET 0 -7.37 0
              }
            }
          }
        }
      }
      JOINT RightCollar
      {
        OFFSET -1.06 4.19 1.76
        CHANNELS 3 Zrotation Xrotation Yrotation
        JOINT RightShoulder
        {
          OFFSET -6.06 2.84217e-014 -4.26326e-014
          CHANNELS 3 Zrotation Xrotation Yrotation
          JOINT RightElbow
          {
            OFFSET 3.97904e-013 -11.08 -3.2685e-013
            CHANNELS 3 Zrotation Xrotation Yrotation
            JOINT RightWrist
            {
              OFFSET 1.00329e-011 -9.82 1.11697e-011
              CHANNELS 3 Zrotation Xrotation Yrotation
              End Site
              {
                OFFSET 0 -7.14001 0
              }
            }
          }
        }
      }
      JOINT Neck
      {
        OFFSET -1.06581e-014 4.05 2.84217e-014
        CHANNELS 3 Zrotation Xrotation Yrotation
        JOINT Head
        {
          OFFSET -1.13687e-013 5.19 -1.42109e-014
          CHANNELS 3 Zrotation Xrotation Yrotation
          End Site
          {
            OFFSET 0 4.14001 0
          }
        }
      }
    }
  }
}
MOTION
Frames:	17
Frame Time:	0.0333333
37.7456 39.0038 78.8436 -7.31012 1.63757 -131.762 -9.3601 -2.86671 -8.77241 -0.933496 22.193 8.53185 3.33848 -13.4438 0.393585 -2.31761 -20.5796 -0.922585 -9.2666 64.5491 -1.35869 -4.86676 -5.29143 -0.225024 -2.40827 2.83035 -2.5621 -2.93157 4.30622 -3.44445 4.90021 -0.00169695 1.9485 16.8538 -11.6214 6.21232 -6.81137 -10.8546 -35.6206 6.75416 3.1392 -0.185289 -2.49273 0.190522 -4.34239 -18.7147 3.03832 -1.53473 9.98136 -14.8082 37.5846 -2.86611 -0.0330781 -0.000827507 1.89819 -5.69981 -1.1705 1.76508 -5.8789 -0.365023 
37.0137 39.0893 77.9892 -6.78533 1.95885 -130.62 -8.17947 -0.498575 -8.1472 -0.933951 20.6464 6.99986 3.58012 -13.9469 0.438039 -2.01588 -23.5385 -0.527062 -6.64151 57.1119 -4.89102 -4.98477 -7.02136 -0.306006 -2.12014 2.97072 -3.04528 -2.59779 4.47191 -4.11901 5.02541 0.000399912 1.78627 16.92 -14.4581 5.50776 -7.04559 -12.1296 -35.5013 6.9633 2.86232 -0.174183 -2.3177 0.182701 -4.39278 -18.7516 3.2484 -1.48739 10.2283 -15.5895 37.303 -2.89963 -0.112864 -0.00285652 2.07633 -5.64397 -1.30389 1.87597 -5.88691 -0.363055 
36.2773 39.1126 77.1224 -6.41018 2.09224 -129.436 -7.25171 1.75292 -7.68806 -0.863435 19.299 5.59324 3.69003 -14.5325 0.470656 -2.47732 -25.1674 -0.481737 -4.45999 46.8601 -8.39009 -4.86491 -8.04153 -0.342164 -1.94781 3.09248 -3.47736 -2.40072 4.60652 -4.71617 5.1753 0.00252417 1.64988 16.8925 -16.9946 4.80689 -7.28967 -13.747 -35.484 7.15002 2.44741 -0.152929 -2.1854 0.174849 -4.50557 -18.7037 3.37122 -1.48638 10.3688 -16.1466 37.0653 -2.94833 -0.205787 -0.00529588 2.24348 -5.69673 -1.4866 1.96487 -5.89492 -0.441975 
35.514 39.0514 76.2189 -6.21415 2.08803 -128.309 -6.48631 3.69529 -7.26333 -0.915874 18.8141 4.33818 3.7519 -16.0823 0.530229 -3.44323 -25.3133 -0.595274 -2.9586 34.5253 -10.9463 -3.79516 -8.63958 -0.286782 -1.87102 3.20462 -3.84715 -2.34254 4.72462 -5.20457 5.34959 0.00474333 1.55472 16.7396 -19.1014 4.13562 -7.52436 -15.6317 -35.5438 7.31784 1.92172 -0.1229 -2.14155 0.168969 -4.6718 -18.5293 3.408 -1.55086 10.3432 -16.3744 36.8844 -2.99481 -0.290863 -0.00760335 2.38334 -5.82534 -1.68316 2.03528 -5.93455 -0.568545 
34.7033 38.8621 75.2425 -6.14091 2.07436 -127.305 -5.80634 5.17005 -6.86457 -0.985869 19.7422 3.24474 3.70571 -18.5062 0.603922 -4.36394 -24.3695 -0.501092 -2.30726 22.1911 -12.1415 -1.12751 -8.73767 -0.0861434 -1.80064 3.30335 -4.18177 -2.37882 4.8217 -5.56759 5.53789 0.00708102 1.50509 16.4931 -20.6672 3.54777 -7.72571 -17.6079 -35.6342 7.46155 1.35099 -0.0880972 -2.20466 0.166802 -4.86586 -18.2584 3.40821 -1.6889 10.1368 -16.2157 36.7786 -3.03172 -0.360189 -0.00953169 2.47902 -5.96634 -1.85563 2.09237 -5.99542 -0.704037 
33.8206 38.6176 74.1519 -6.21425 2.05858 -126.539 -5.05426 7.15979 -6.39128 -1.15032 20.2746 2.14481 3.68963 -20.9703 0.683072 -4.88878 -23.1355 -0.0536557 -2.4283 12.9554 -12.3896 2.12624 -8.61915 0.160249 -1.81777 3.33742 -4.42978 -2.4254 4.84696 -5.80207 5.7201 0.00940379 1.49634 16.0876 -21.5149 3.07224 -7.87391 -19.4315 -35.726 7.59718 0.834074 -0.0553795 -2.3597 0.169116 -5.05112 -17.928 3.43646 -1.89298 9.77633 -15.6837 36.7608 -3.0566 -0.398175 -0.0106234 2.51662 -6.04963 -1.97183 2.13632 -6.01951 -0.812314 
32.8318 38.3225 72.8947 -6.52215 1.92265 -126.058 -4.4789 10.2346 -5.90887 -1.13371 19.5425 0.981209 3.58053 -23.1494 0.733558 -4.97615 -23.8121 0.419154 -3.30739 13.3682 -12.0011 4.99035 -11.2859 0.493395 -2.15919 3.21002 -4.57318 -2.3874 4.70353 -5.91522 5.8716 0.0115634 1.52015 15.5627 -21.4899 2.76916 -7.95966 -20.8401 -35.8156 7.72443 0.466049 -0.0314634 -2.56524 0.175198 -5.19144 -17.6658 3.62927 -2.15027 9.33357 -14.8582 36.8744 -3.05777 -0.403287 -0.0107639 2.48958 -6.02602 -2.0122 2.15899 -5.92975 -0.8661 
31.8565 38.1491 71.577 -6.18182 2.53459 -125.976 -2.95331 15.2605 -5.33499 -0.873331 14.9998 -0.261825 3.40789 -23.5663 0.711102 -3.74998 -23.6661 1.26899 -3.62956 15.0001 -12.2743 5.1287 -11.2067 0.503508 -1.64021 3.11281 -4.62588 -2.18093 4.51435 -5.91884 5.97187 0.0133054 1.56869 14.8562 -20.7922 2.63372 -7.94278 -21.6173 -35.8263 7.91163 0.300808 -0.0208015 -2.77072 0.18306 -5.26621 -17.4118 3.70722 -2.42064 8.84927 -13.8897 36.9973 -3.0617 -0.409168 -0.0109349 2.40057 -5.88764 -1.97439 2.1491 -5.6779 -0.853274 
30.86 38.0777 70.1657 -5.64845 3.29209 -126.198 -1.38971 18.746 -4.55198 -0.631171 13.5917 -1.26328 2.78408 -22.9004 0.564015 -1.9751 -22.8316 2.19854 -3.43299 16.2718 -12.9806 3.26551 -7.77575 0.221986 -1.04665 2.8899 -4.58722 -1.76977 4.16955 -5.8333 6.01452 0.0144853 1.63598 14.0466 -19.354 2.71267 -7.83232 -21.6191 -35.8018 8.10305 0.363222 -0.0257273 -2.93642 0.190411 -5.28125 -17.3003 3.82264 -2.67618 8.41974 -12.9316 37.1957 -3.05277 -0.421055 -0.0112198 2.26212 -5.67886 -1.87499 2.10048 -5.27973 -0.782019 
29.8232 38.1474 68.6636 -5.17757 3.88219 -126.707 0.173644 20.2269 -3.57094 -0.611431 16.1218 -2.08213 0.0422215 -21.2226 0.00791013 -0.138541 -21.2427 3.20057 -3.16069 17.4404 -13.5503 1.48468 -3.5774 0.0463674 -0.755784 2.49521 -4.36195 -1.17782 3.66062 -5.67571 6.01269 0.0151749 1.71695 13.1708 -17.2569 3.01036 -7.63889 -20.8139 -35.7786 8.23092 0.626528 -0.0450805 -3.04748 0.195779 -5.26695 -17.3504 3.98413 -2.88052 8.1094 -12.1313 37.4834 -3.03417 -0.448866 -0.011888 2.09468 -5.48618 -1.74581 2.02062 -4.81966 -0.681496 
28.812 38.2402 67.163 -4.50089 4.57483 -127.291 1.78457 18.2831 -2.2506 -0.399894 24.7924 -2.31736 -1.70572 -18.0408 -0.270802 1.79202 -19.6206 4.23743 -2.81928 19.0581 -14.0098 0.934058 -0.719594 0.00586576 -0.308891 2.12663 -4.12346 -0.483951 3.18303 -5.45184 5.99475 0.0156682 1.80472 12.4399 -14.9685 3.52522 -7.35627 -19.3021 -35.7205 8.22279 0.993819 -0.0714383 -3.11696 0.199052 -5.2623 -17.5453 3.99235 -3.00113 7.94486 -11.5994 37.7977 -3.0345 -0.554456 -0.0146861 1.92041 -5.40761 -1.62384 1.93206 -4.41692 -0.595312 
27.8281 38.3186 65.7006 -3.82285 5.22024 -127.909 3.29054 14.0255 -0.987215 0.143892 36.3002 -1.79502 -3.78741 -10.1611 -0.336845 3.33599 -18.0566 5.02024 -2.22983 20.5327 -14.2422 1.49408 0.604465 -0.00788169 0.14414 1.84835 -3.82454 0.199699 2.83987 -5.15285 5.9903 0.0163334 1.88977 11.9241 -12.6941 4.19489 -7.01717 -17.3032 -35.685 8.03104 1.36231 -0.0956377 -3.17758 0.20135 -5.29293 -17.8321 3.76431 -3.01413 7.93564 -11.3902 38.1163 -3.07752 -0.756369 -0.0203185 1.75337 -5.50728 -1.53772 1.86378 -4.17641 -0.567393 
26.8903 38.3494 64.3719 -3.55977 5.60595 -128.59 3.93448 8.83628 -0.262919 1.19229 47.1265 -0.029358 -6.57851 1.2413 0.071342 4.18549 -17.2237 5.31468 -1.54595 23.4464 -13.9087 1.4477 -0.50439 0.00637262 0.430402 1.87103 -3.44541 0.586065 2.89989 -4.69827 5.97233 0.0164788 1.94183 11.7515 -10.8213 4.94688 -6.62008 -15.0916 -35.6009 7.66389 1.63562 -0.109562 -3.22534 0.203093 -5.32292 -18.1361 2.94906 -2.90639 8.02261 -11.4708 38.2786 -3.17642 -1.07363 -0.0297689 1.5804 -5.87293 -1.48377 1.82947 -4.25095 -0.6154 
25.9765 38.3858 63.1272 -3.64024 5.7898 -129.356 3.30111 3.58046 -0.0466177 2.805 56.7337 1.72932 -5.84662 7.46845 0.381921 4.69074 -16.1701 5.44336 -1.21445 26.2642 -13.3652 1.50256 -3.21398 0.0421563 0.544206 2.07463 -2.9857 0.71287 3.20553 -4.08677 5.97097 0.0167689 1.97878 11.8567 -9.08735 5.7016 -6.2645 -13.025 -35.6324 7.21115 1.78561 -0.112524 -3.31814 0.207021 -5.3492 -18.392 1.79144 -2.671 8.22545 -11.8468 38.3946 -3.36111 -1.46468 -0.0429756 1.39839 -6.3312 -1.45558 1.83055 -4.51461 -0.74257 
25.0799 38.49 61.9011 -3.79899 5.88955 -130.205 2.1639 -1.61893 -0.273884 4.79595 64.1376 2.48922 -4.78256 9.34908 0.391284 5.40231 -14.3613 5.9264 -1.44082 27.7809 -13.0859 1.62345 -6.28927 0.0891974 0.551935 2.2705 -2.45779 0.760938 3.50676 -3.37736 6.0087 0.0178344 2.02577 12.119 -7.19032 6.40088 -6.03249 -11.4116 -35.8953 6.78777 1.84124 -0.109202 -3.4848 0.214543 -5.36916 -18.5908 0.591015 -2.31601 8.56561 -12.5074 38.5883 -3.65132 -1.86848 -0.0595623 1.2114 -6.68447 -1.44616 1.85085 -4.77624 -0.928136 
24.2201 38.6465 60.7311 -4.05876 5.85863 -131.202 0.714775 -6.83995 -0.784291 6.33619 69.3106 2.39103 -2.59912 7.14983 0.162408 6.00999 -11.8999 6.51236 -1.96719 27.8304 -12.728 1.66071 -8.51578 0.123651 0.427328 2.46244 -1.8574 0.728395 3.79936 -2.59062 6.05085 0.019064 2.07858 12.4865 -5.21908 7.01362 -5.92182 -10.3963 -36.2636 6.46576 1.84155 -0.104028 -3.68594 0.224396 -5.33263 -18.776 -0.71541 -1.86989 9.00013 -13.3795 38.7982 -4.03495 -2.24513 -0.0790974 1.00861 -6.8683 -1.42833 1.86039 -4.98808 -1.12398 
23.3946 38.8345 59.628 -4.365 5.7303 -132.36 -0.812236 -11.831 -1.54121 6.63896 71.5606 2.31288 -0.186988 2.72905 0.00445406 6.14727 -9.06141 6.79008 -2.22436 26.8164 -12.0631 1.39094 -10.161 0.123668 0.235909 2.65643 -1.22811 0.638992 4.07772 -1.76259 6.07214 0.0199847 2.13568 12.9088 -3.24969 7.53521 -5.91747 -9.98789 -36.6199 6.26501 1.81466 -0.0993192 -3.89074 0.235147 -5.2076 -19.0099 -2.1435 -1.37811 9.48697 -14.3895 38.9775 -4.48708 -2.56494 -0.100504 0.777128 -6.85531 -1.37779 1.83595 -5.11695 -1.28532 
